<svg xmlns="http://www.w3.org/2000/svg" id="wallet" viewBox="0 0 64 64">
  <path fill="#4c6d86" d="M20.511 20.833h-9a5 5 0 0 1 0-10h32a4 4 0 0 1 4 4v6h-27z"></path>
  <path fill="#41667d" d="M10.511 15.833a5 5 0 0 1 5-5h-4a5 5 0 0 0 0 10h4a5 5 0 0 1-5-5z"></path>
  <path fill="#617e95" d="M11.511 20.833h32.5v-4.5a2 2 0 0 0-2-2h-30a2 2 0 0 0-2 2v4.246c.476.151.974.254 1.5.254z"></path>
  <path fill="#4c6d86" d="M29.511 18.25H14.495c-.836-.003-1.484-.745-1.484-1.582v-2.335h-1a2 2 0 0 0-2 2v4.246c.476.151.974.254 1.5.254h32.5V18.25h-14.5z"></path>
  <path fill="#ca7829" d="M51.511 20.833h-40a5 5 0 0 1-5-5v33a4 4 0 0 0 4 4h42a4 4 0 0 0 4-4v-23a5 5 0 0 0-5-5z"></path>
  <path fill="#da8c37" d="M6.511 45.333a4 4 0 0 0 4 4h10l30.449.037a2 2 0 0 0 2-2l.014-2.537.048-9V27.338a3 3 0 0 0-3-3h-39.5a4 4 0 0 1-4-4"></path>
  <path fill="#ca7829" d="M20.788 38.073c.434-.639.688-1.41.688-2.239 0-2.206-1.794-4-4-4v-.5a.5.5 0 0 0-1 0v.5h-2v-.5a.5.5 0 0 0-1 0v1c0 .08.023.153.056.22-.027.091-.056.181-.056.28v12c0 .099.03.189.056.28a.482.482 0 0 0-.056.22v1a.5.5 0 0 0 1 0v-.5h2v.5a.5.5 0 0 0 1 0v-.5h2c2.206 0 4-1.794 4-4 0-1.744-1.128-3.215-2.688-3.761zm-1.312-2.24c0 1.103-.897 2-2 2h-2v-4h2c1.102 0 2 .897 2 2zm0 8h-4v-4h4c1.103 0 2 .897 2 2s-.898 2-2 2z"></path>
  <path fill="#c96f29" d="M14.511 50.833a4 4 0 0 1-4-4v-26.1a5 5 0 0 1-4-4.899v33a4 4 0 0 0 4 4h42c1.477 0 2.752-.809 3.445-2H14.511z"></path>
  <path fill="#ca7829" d="M24.511 47.333h-10a4 4 0 0 1-4-4l.008-18.994a4 4 0 0 1-3.997-4l-.011 24.994a4 4 0 0 0 4 4h10l30.449.037a2 2 0 0 0 2-2l.006-.002-28.455-.035z"></path>
  <path fill="#024665" d="M15.976 32.833h-3a.5.5 0 0 1-.5-.5v-1a.5.5 0 0 1 1 0v.5h2v-.5a.5.5 0 0 1 1 0v1a.5.5 0 0 1-.5.5zM18.476 45.833h-5a1 1 0 0 1-1-1v-6a1 1 0 0 1 1-1h5c2.206 0 4 1.794 4 4s-1.794 4-4 4zm-4-2h4c1.103 0 2-.897 2-2s-.897-2-2-2h-4v4z"></path>
  <path fill="#024665" d="M16.476 39.833h-3a1 1 0 0 1-1-1v-6a1 1 0 0 1 1-1h3c2.206 0 4 1.794 4 4s-1.794 4-4 4zm-2-2h2c1.103 0 2-.897 2-2s-.897-2-2-2h-2v4z"></path>
  <path fill="#024665" d="M13.403 45.833h-.856a1 1 0 0 1-.144-1.99v-10.02a1 1 0 0 1 .144-1.99h.856a1 1 0 0 1 1 1v12a1 1 0 0 1-1 1z"></path>
  <path fill="#024665" d="M15.976 46.833a.5.5 0 0 1-.5-.5v-.5h-2v.5a.5.5 0 0 1-1 0v-1a.5.5 0 0 1 .5-.5h3a.5.5 0 0 1 .5.5v1a.5.5 0 0 1-.5.5z"></path>
  <path fill="#ca7829" d="M56.511 44.833h-8.5a4.5 4.5 0 0 1 0-9h8.5v9z"></path>
  <path fill="#c96f29" d="M53.5 35.833v5a2 2 0 0 1-2 2h-.281c-2.391 0-4.514-1.775-4.695-4.158a4.458 4.458 0 0 1 .704-2.763 4.493 4.493 0 0 0-3.687 4.951c.264 2.305 2.356 3.97 4.675 3.97h8.294v-9H53.5z"></path>
  <path fill="#024665" d="M44.011 20.833a.5.5 0 0 1-.5-.5v-4c0-.827-.673-1.5-1.5-1.5h-30c-.827 0-1.5.673-1.5 1.5v4a.5.5 0 0 1-1 0v-4c0-1.378 1.121-2.5 2.5-2.5h30c1.379 0 2.5 1.122 2.5 2.5v4a.5.5 0 0 1-.5.5z"></path>
  <circle cx="48.011" cy="40.333" r="1" fill="#fff"></circle>
  <path fill="#024665" d="M48.011 41.833c-.827 0-1.5-.673-1.5-1.5s.673-1.5 1.5-1.5 1.5.673 1.5 1.5-.673 1.5-1.5 1.5zm0-2a.5.5 0 1 0 .002 1.002.5.5 0 0 0-.002-1.002z"></path>
  <path fill="#024665" d="M51.511 19.833h-3v-5c0-2.757-2.243-5-5-5h-32c-3.309 0-6 2.691-6 6v33c0 2.757 2.243 5 5 5h42c2.757 0 5-2.243 5-5v-23c0-3.308-2.692-6-6-6zm-40-8h32c1.654 0 3 1.346 3 3v5h-35c-2.206 0-4-1.794-4-4s1.794-4 4-4zm36.5 34h4.458l-.009 1.537c0 .827-.673 1.5-1.499 1.5l-40.45-.037c-1.28 0-2.39-.698-3-1.726V23.659a4.465 4.465 0 0 0 3.012 1.18h39.5c1.379 0 2.5 1.122 2.5 2.5v7.494h-4.512c-3.032 0-5.5 2.467-5.5 5.5s2.468 5.5 5.5 5.5zm7.5 3c0 1.654-1.346 3-3 3h-42c-1.654 0-3-1.346-3-3v-.17a4.463 4.463 0 0 0 3 1.17l40.449.037c1.379 0 2.5-1.122 2.5-2.497l.009-1.54h2.042v3zm0-5h-7.5c-1.93 0-3.5-1.57-3.5-3.5s1.57-3.5 3.5-3.5h7.5v7zm0-9h-1.988v-7.494c0-1.93-1.57-3.5-3.5-3.5h-39.5a3.49 3.49 0 0 1-3.012-1.748v-1.799a5.97 5.97 0 0 0 4 1.54h40c2.206 0 4 1.794 4 4v9.001z"></path>
</svg>
